# xmcd CD database file
#
# Track frame offsets:
#	150
#	79327
#	122752
#	188436
#	222052
#
# Disc length: 3641 seconds
#
# Revision: 0
# Processed by: cddbd v1.4PL0 Copyright (c) Steve Scherf et al.
# Submitted via: CDex 1.50beta10
#
DISCID=3a0e3705
DTITLE=Soft Works feat. Allan Holdsworth - Progman Cometh Festival - Miller Theatre - Seattle WA, Aug 17 2002
DYEAR=2002
DGENRE=Jazz
TTITLE0=Seven for Lee
TTITLE1=Alphrazallan
TTITLE2=Elsewhere
TTITLE3=Calyx
TTITLE4=Baker's Treat
EXTD=YEAR: 2002
EXTT0=
EXTT1=
EXTT2=
EXTT3=
EXTT4=
PLAYORDER=
